<svg xmlns="http://www.w3.org/2000/svg" viewBox="0 0 640 160" font-family="sans-serif">
  <polyline fill="none" stroke="#d4a017" stroke-width="2.5" points="12.0,127.1 22.6,139.4 33.2,148.0 43.9,140.7 54.5,137.9 65.1,128.1 75.7,131.1 86.3,131.1 97.0,131.1 107.6,129.9 118.2,138.5 128.8,137.1 139.4,137.1 150.1,133.3 160.7,133.0 171.3,128.3 181.9,127.8 192.6,128.6 203.2,122.0 213.8,119.8 224.4,119.8 235.0,119.8 245.7,121.3 256.3,123.1 266.9,120.0 277.5,116.6 288.1,108.7 298.8,106.2 309.4,106.2 320.0,82.5 330.6,61.7 341.2,55.6 351.9,68.4 362.5,68.2 373.1,66.5 383.7,66.5 394.3,64.5 405.0,64.5 415.6,56.6 426.2,57.0 436.8,43.6 447.4,29.3 458.1,29.3 468.7,25.8 479.3,33.8 489.9,38.9 500.6,27.1 511.2,12.0 521.8,15.4 532.4,15.4 543.0,22.1 553.7,30.2 564.3,34.2 574.9,34.7 585.5,29.7 596.1,32.6 606.8,32.6 617.4,21.7 628.0,16.6" />
  <text x="628" y="16" text-anchor="end" font-size="14" fill="#d4a017">241,237,000</text>
</svg>