<svg xmlns="http://www.w3.org/2000/svg" viewBox="0 0 640 160" font-family="sans-serif">
  <polyline fill="none" stroke="#d4a017" stroke-width="2.5" points="12.0,117.3 31.9,135.3 51.7,148.0 71.6,137.3 91.5,133.2 111.4,118.7 131.2,123.2 151.1,123.2 171.0,123.2 190.8,121.4 210.7,134.0 230.6,131.9 250.5,131.9 270.3,126.4 290.2,125.9 310.1,119.1 329.9,118.3 349.8,119.5 369.7,109.7 389.5,106.5 409.4,106.5 429.3,106.5 449.2,108.8 469.0,111.3 488.9,106.8 508.8,101.8 528.6,90.2 548.5,86.5 568.4,86.5 588.3,51.6 608.1,20.9 628.0,12.0" />
  <text x="628" y="16" text-anchor="end" font-size="14" fill="#d4a017">222,658,000</text>
</svg>