<svg xmlns="http://www.w3.org/2000/svg" viewBox="0 0 640 160" font-family="sans-serif">
  <polyline fill="none" stroke="#d4a017" stroke-width="2.5" points="12.0,127.1 23.4,139.4 34.8,148.0 46.2,140.7 57.6,137.9 69.0,128.1 80.4,131.1 91.9,131.1 103.3,131.1 114.7,129.9 126.1,138.5 137.5,137.1 148.9,137.1 160.3,133.3 171.7,133.0 183.1,128.3 194.5,127.8 205.9,128.6 217.3,122.0 228.7,119.8 240.1,119.8 251.6,119.8 263.0,121.3 274.4,123.1 285.8,120.0 297.2,116.6 308.6,108.7 320.0,106.2 331.4,106.2 342.8,82.5 354.2,61.7 365.6,55.6 377.0,68.4 388.4,68.2 399.9,66.5 411.3,66.5 422.7,64.5 434.1,64.5 445.5,56.6 456.9,57.0 468.3,43.6 479.7,29.3 491.1,29.3 502.5,25.8 513.9,33.8 525.3,38.9 536.7,27.1 548.1,12.0 559.6,15.4 571.0,15.4 582.4,22.1 593.8,30.2 605.2,34.2 616.6,34.7 628.0,29.7" />
  <text x="628" y="16" text-anchor="end" font-size="14" fill="#d4a017">235,013,000</text>
</svg>