<svg xmlns="http://www.w3.org/2000/svg" viewBox="0 0 640 160" font-family="sans-serif">
  <polyline fill="none" stroke="#e63946" stroke-width="2.5" points="12.0,132.0 22.4,132.0 32.9,129.0 43.3,135.6 53.8,130.9 64.2,130.9 74.6,142.1 85.1,142.0 95.5,147.1 106.0,147.7 116.4,148.0 126.8,143.9 137.3,142.5 147.7,142.5 158.2,142.5 168.6,144.1 179.1,147.5 189.5,145.9 199.9,143.9 210.4,139.8 220.8,138.8 231.3,138.8 241.7,131.7 252.1,114.1 262.6,108.4 273.0,113.2 283.5,113.4 293.9,113.2 304.3,113.2 314.8,100.8 325.2,100.8 335.7,93.3 346.1,82.5 356.5,69.0 367.0,66.4 377.4,66.4 387.9,52.3 398.3,61.9 408.7,64.0 419.2,53.4 429.6,39.7 440.1,32.2 450.5,32.2 460.9,37.0 471.4,49.1 481.8,42.9 492.3,45.0 502.7,44.7 513.2,50.7 523.6,50.7 534.0,45.3 544.5,44.5 554.9,44.1 565.4,38.6 575.8,42.0 586.2,35.3 596.7,35.3 607.1,38.3 617.6,34.4 628.0,12.0" />
  <text x="628" y="16" text-anchor="end" font-size="14" fill="#e63946">2,448,000</text>
</svg>